<?xml version="1.0" encoding="UTF-8"?>
<svg version="1.1" xmlns="http://www.w3.org/2000/svg" width="456" height="456">
<path d="M0 0 C150.48 0 300.96 0 456 0 C456 150.48 456 300.96 456 456 C305.52 456 155.04 456 0 456 C0 305.52 0 155.04 0 0 Z " fill="#1C6E36" transform="translate(0,0)"/>
<path d="M0 0 C3.53704278 0.48161065 4.70220881 1.81778888 7.18798828 4.34790039 C8.02861816 5.19416992 8.86924805 6.04043945 9.73535156 6.91235352 C11.04995361 8.2784375 11.04995361 8.2784375 12.39111328 9.67211914 C13.74245361 11.05173828 13.74245361 11.05173828 15.12109375 12.45922852 C21.00368684 18.51625541 26.47713082 24.68114896 31.64111328 31.35961914 C33.2402142 33.25972729 34.84469624 35.15531559 36.45361328 37.04711914 C75.62837348 84.1773691 108.04012093 144.39538295 102.35693359 207.51586914 C99.09867783 235.74826223 89.36847867 262.65772894 70.64111328 284.35961914 C69.46355469 285.72666992 69.46355469 285.72666992 68.26220703 287.12133789 C66.09482125 289.57477458 63.8847754 291.97599322 61.64111328 294.35961914 C60.81933594 295.26067383 60.81933594 295.26067383 59.98095703 296.17993164 C48.17498311 308.65307362 32.89061647 317.54395675 17.51611328 324.85961914 C16.80551758 325.19815918 16.09492188 325.53669922 15.36279297 325.88549805 C11.79201436 327.53427219 8.50162692 328.67205078 4.64111328 329.35961914 C4.65158691 330.55562744 4.66206055 331.75163574 4.67285156 332.98388672 C4.70902733 337.41745007 4.73200494 341.85100035 4.75097656 346.28466797 C4.76103967 348.20428663 4.77469144 350.12388995 4.79199219 352.04345703 C4.81622692 354.80122666 4.8275932 357.55879378 4.83642578 360.31665039 C4.84674835 361.17611771 4.85707092 362.03558502 4.8677063 362.9210968 C4.86785736 363.72170029 4.86800842 364.52230377 4.86816406 365.34716797 C4.87260529 366.05110184 4.87704651 366.75503571 4.88162231 367.4803009 C4.64111328 369.35961914 4.64111328 369.35961914 2.64111328 372.35961914 C-2.10888672 371.60961914 -2.10888672 371.60961914 -4.35888672 369.35961914 C-4.53435154 366.34652963 -4.59016117 363.4265146 -4.55419922 360.41430664 C-4.55136932 359.52929474 -4.54853943 358.64428284 -4.54562378 357.73245239 C-4.53440912 354.89970502 -4.50930242 352.0672713 -4.48388672 349.23461914 C-4.47385857 347.31665495 -4.46473243 345.39868581 -4.45654297 343.48071289 C-4.43446561 338.77356038 -4.39992717 334.06664298 -4.35888672 329.35961914 C-5.51070435 329.14595703 -5.51070435 329.14595703 -6.68579102 328.92797852 C-36.30591973 322.63008285 -63.90634369 295.69232595 -79.96484375 271.51879883 C-91.61057044 253.48117942 -98.30386282 233.53376434 -101.35888672 212.35961914 C-101.50970703 211.3502832 -101.66052734 210.34094727 -101.81591797 209.30102539 C-108.92956366 148.5030669 -77.90344099 90.19459464 -41.59619141 43.86010742 C-35.7441814 36.49386136 -29.63217731 29.36893839 -23.35888672 22.35961914 C-22.87291016 21.8157959 -22.38693359 21.27197266 -21.88623047 20.71166992 C-18.75374469 17.21963111 -15.56985371 13.77989361 -12.35888672 10.35961914 C-11.90852051 9.86993652 -11.4581543 9.38025391 -10.99414062 8.87573242 C-9.67103566 7.440989 -8.32774721 6.02494045 -6.98388672 4.60961914 C-6.21302734 3.78977539 -5.44216797 2.96993164 -4.64794922 2.12524414 C-2.35888672 0.35961914 -2.35888672 0.35961914 0 0 Z " fill="#1E6E37" transform="translate(227.35888671875,45.640380859375)"/>
<path d="M0 0 C3.53704278 0.48161065 4.70220881 1.81778888 7.18798828 4.34790039 C8.02861816 5.19416992 8.86924805 6.04043945 9.73535156 6.91235352 C11.04995361 8.2784375 11.04995361 8.2784375 12.39111328 9.67211914 C13.74245361 11.05173828 13.74245361 11.05173828 15.12109375 12.45922852 C21.00368684 18.51625541 26.47713082 24.68114896 31.64111328 31.35961914 C33.2402142 33.25972729 34.84469624 35.15531559 36.45361328 37.04711914 C75.62837348 84.1773691 108.04012093 144.39538295 102.35693359 207.51586914 C99.09867783 235.74826223 89.36847867 262.65772894 70.64111328 284.35961914 C69.46355469 285.72666992 69.46355469 285.72666992 68.26220703 287.12133789 C66.09482125 289.57477458 63.8847754 291.97599322 61.64111328 294.35961914 C60.81933594 295.26067383 60.81933594 295.26067383 59.98095703 296.17993164 C48.17498311 308.65307362 32.89061647 317.54395675 17.51611328 324.85961914 C16.80551758 325.19815918 16.09492188 325.53669922 15.36279297 325.88549805 C11.79201436 327.53427219 8.50162692 328.67205078 4.64111328 329.35961914 C4.65158691 330.55562744 4.66206055 331.75163574 4.67285156 332.98388672 C4.70902733 337.41745007 4.73200494 341.85100035 4.75097656 346.28466797 C4.76103967 348.20428663 4.77469144 350.12388995 4.79199219 352.04345703 C4.81622692 354.80122666 4.8275932 357.55879378 4.83642578 360.31665039 C4.84674835 361.17611771 4.85707092 362.03558502 4.8677063 362.9210968 C4.86785736 363.72170029 4.86800842 364.52230377 4.86816406 365.34716797 C4.87260529 366.05110184 4.87704651 366.75503571 4.88162231 367.4803009 C4.64111328 369.35961914 4.64111328 369.35961914 2.64111328 372.35961914 C-2.10888672 371.60961914 -2.10888672 371.60961914 -4.35888672 369.35961914 C-4.53435154 366.34652963 -4.59016117 363.4265146 -4.55419922 360.41430664 C-4.55136932 359.52929474 -4.54853943 358.64428284 -4.54562378 357.73245239 C-4.53440912 354.89970502 -4.50930242 352.0672713 -4.48388672 349.23461914 C-4.47385857 347.31665495 -4.46473243 345.39868581 -4.45654297 343.48071289 C-4.43446561 338.77356038 -4.39992717 334.06664298 -4.35888672 329.35961914 C-5.51070435 329.14595703 -5.51070435 329.14595703 -6.68579102 328.92797852 C-36.30591973 322.63008285 -63.90634369 295.69232595 -79.96484375 271.51879883 C-91.61057044 253.48117942 -98.30386282 233.53376434 -101.35888672 212.35961914 C-101.50970703 211.3502832 -101.66052734 210.34094727 -101.81591797 209.30102539 C-108.92956366 148.5030669 -77.90344099 90.19459464 -41.59619141 43.86010742 C-35.7441814 36.49386136 -29.63217731 29.36893839 -23.35888672 22.35961914 C-22.87291016 21.8157959 -22.38693359 21.27197266 -21.88623047 20.71166992 C-18.75374469 17.21963111 -15.56985371 13.77989361 -12.35888672 10.35961914 C-11.90852051 9.86993652 -11.4581543 9.38025391 -10.99414062 8.87573242 C-9.67103566 7.440989 -8.32774721 6.02494045 -6.98388672 4.60961914 C-6.21302734 3.78977539 -5.44216797 2.96993164 -4.64794922 2.12524414 C-2.35888672 0.35961914 -2.35888672 0.35961914 0 0 Z M-2.93701172 11.60961914 C-3.48873047 12.18711914 -4.04044922 12.76461914 -4.60888672 13.35961914 C-5.22505859 14.00286133 -5.84123047 14.64610352 -6.47607422 15.30883789 C-8.86062801 17.90612158 -11.1920639 20.54240062 -13.49169922 23.21508789 C-15.49042317 25.51069343 -17.54833901 27.74441514 -19.60888672 29.98461914 C-24.70832525 35.63815626 -29.36717765 41.59677984 -34.01220703 47.62329102 C-35.25718912 49.22849635 -36.52204137 50.81823751 -37.78857422 52.40649414 C-49.45578467 67.17220966 -59.61326104 82.9778831 -68.39550781 99.61352539 C-69.2480314 101.15869739 -70.21249064 102.64093505 -71.19091797 104.10961914 C-72.53447791 106.24838708 -72.53447791 106.24838708 -72.28857422 108.46118164 C-71.09111746 110.90640847 -69.6253629 112.06379707 -67.48388672 113.73461914 C-62.98526226 117.57215542 -60.71376318 120.27864626 -60.01513672 126.34399414 C-59.6755886 133.71218837 -60.34769276 138.80916284 -65.35888672 144.35961914 C-69.64821405 148.8444386 -73.91285849 151.22139671 -80.18310547 151.47290039 C-82.91200092 151.4833827 -85.63152974 151.44697221 -88.35888672 151.35961914 C-92.64466854 164.27410838 -93.64473289 176.60461056 -93.48388672 190.10961914 C-93.47382645 191.59659221 -93.46470604 193.08357195 -93.45654297 194.57055664 C-93.43479472 198.16705237 -93.4004369 201.76329114 -93.35888672 205.35961914 C-92.75222168 205.19953369 -92.14555664 205.03944824 -91.52050781 204.87451172 C-85.8561601 203.52527868 -80.15575837 203.47751851 -74.92138672 206.04711914 C-70.15900741 210.34487608 -67.59738585 213.54532935 -67.04638672 220.04711914 C-67.13426393 224.81885152 -68.49021484 228.54318546 -71.35888672 232.35961914 C-75.80859333 236.26860191 -80.60517791 236.9558501 -86.35888672 237.35961914 C-84.59818365 249.83333244 -76.74729011 262.45476945 -69.35888672 272.35961914 C-68.78009766 273.16012695 -68.20130859 273.96063477 -67.60498047 274.78540039 C-54.54095381 292.02540101 -38.13984672 304.90380308 -19.17138672 315.04711914 C-18.38151367 315.46968994 -17.59164062 315.89226074 -16.77783203 316.32763672 C-16.02727539 316.71330811 -15.27671875 317.09897949 -14.50341797 317.49633789 C-13.84704346 317.83366943 -13.19066895 318.17100098 -12.5144043 318.51855469 C-9.83718725 319.56318179 -7.19166401 319.91726122 -4.35888672 320.35961914 C-4.05628395 310.65838459 -3.82601214 300.95879804 -3.68532848 291.25385666 C-3.61776708 286.74606217 -3.52632473 282.24151873 -3.37817383 277.7355957 C-3.23581602 273.37807136 -3.15897705 269.02365031 -3.12548256 264.66397858 C-3.10165126 263.00991207 -3.05510672 261.35599617 -2.98439598 259.70326996 C-2.50006857 249.4701264 -2.50006857 249.4701264 -7.18267822 240.73471069 C-9.87589504 238.08909215 -12.76052657 235.76914344 -15.80014706 233.53552532 C-17.96001812 231.90612832 -19.88342965 230.06560078 -21.81982422 228.17993164 C-22.46765869 227.56883545 -23.11549316 226.95773926 -23.78295898 226.328125 C-24.42676514 225.71976807 -25.07057129 225.11141113 -25.73388672 224.48461914 C-31.11690478 219.40826335 -36.50922225 214.34239371 -41.92138672 209.29711914 C-47.32249234 204.26107078 -52.71905922 199.22023902 -58.10888672 194.17211914 C-59.12897827 193.21776978 -59.12897827 193.21776978 -60.16967773 192.24414062 C-61.12185181 191.35190796 -61.12185181 191.35190796 -62.09326172 190.44165039 C-62.65239258 189.91804932 -63.21152344 189.39444824 -63.78759766 188.85498047 C-64.30612305 188.36151123 -64.82464844 187.86804199 -65.35888672 187.35961914 C-65.92768555 186.85648193 -66.49648437 186.35334473 -67.08251953 185.83496094 C-67.5037207 185.34809814 -67.92492187 184.86123535 -68.35888672 184.35961914 C-68.04638672 181.67211914 -68.04638672 181.67211914 -67.35888672 179.35961914 C-61.89106462 179.65880186 -59.18001167 182.91293502 -55.48388672 186.54711914 C-54.14558411 187.82992068 -52.80703549 189.11246559 -51.46826172 190.39477539 C-50.78699219 191.05364746 -50.10572266 191.71251953 -49.40380859 192.39135742 C-46.21552614 195.46011735 -42.97447607 198.4713138 -39.73388672 201.48461914 C-38.48254133 202.6525415 -37.23123883 203.82050981 -35.97998047 204.98852539 C-32.07523414 208.62748734 -28.15601976 212.25061006 -24.22851562 215.86499023 C-21.29803601 218.56313699 -18.37919909 221.27292384 -15.47216797 223.99633789 C-14.82771729 224.59889404 -14.1832666 225.2014502 -13.51928711 225.82226562 C-12.26526152 226.99552075 -11.01308161 228.17075235 -9.76293945 229.34814453 C-7.40203448 232.0892926 -7.40203448 232.0892926 -4.35888672 233.35961914 C-4.35465478 232.5410975 -4.35042284 231.72257586 -4.34606266 230.87925053 C-4.24290205 210.99225187 -4.1342865 191.10528958 -4.01954746 171.21835423 C-3.96419378 161.6013112 -3.91070832 151.98426447 -3.86157227 142.3671875 C-3.81875664 133.98808414 -3.77248538 125.60900834 -3.72200817 117.22994751 C-3.69538603 112.79047407 -3.67053252 108.35100617 -3.6498127 103.91150093 C-3.63027903 99.73781962 -3.60614527 95.56419086 -3.57839584 91.39055634 C-3.56900802 89.85421894 -3.56133901 88.31786998 -3.55546761 86.78151512 C-3.54723568 84.69299469 -3.53296761 82.60460283 -3.5171051 80.51612854 C-3.51065255 79.34452966 -3.5042 78.17293077 -3.49755192 76.9658289 C-3.35888672 74.35961914 -3.35888672 74.35961914 -2.35888672 73.35961914 C0.14111328 73.23461914 0.14111328 73.23461914 2.64111328 73.35961914 C4.39645287 75.11495873 3.81157877 77.59575742 3.84643555 79.98095703 C3.87635338 81.78271141 3.87635338 81.78271141 3.90687561 83.62086487 C3.9235881 84.92813034 3.9403006 86.23539581 3.95751953 87.58227539 C3.97808286 88.92606761 3.99907916 90.26985326 4.02049255 91.6136322 C4.07577747 95.15636901 4.12515826 98.69916481 4.17333984 102.24200439 C4.22350815 105.85483064 4.27921853 109.46757086 4.33447266 113.08032227 C4.44213265 120.17334661 4.54356008 127.26644802 4.64111328 134.35961914 C8.36450213 131.21348349 12.05062402 128.08256401 15.46533203 124.59790039 C16.41956055 123.63207031 16.41956055 123.63207031 17.39306641 122.64672852 C18.03179687 121.99510742 18.67052734 121.34348633 19.32861328 120.67211914 C20.62176535 119.35333473 21.91726429 118.03684664 23.21533203 116.72290039 C23.77824951 116.14838135 24.34116699 115.5738623 24.92114258 114.98193359 C29.75785276 110.41984145 29.75785276 110.41984145 33.39111328 110.17211914 C34.50486328 110.26493164 34.50486328 110.26493164 35.64111328 110.35961914 C35.95385742 112.51416016 35.95385742 112.51416016 35.64111328 115.35961914 C34.02867652 117.42178445 32.51193423 119.09672463 30.63720703 120.88696289 C30.12110367 121.39836319 29.60500031 121.90976349 29.07325745 122.43666077 C27.41973992 124.06886226 25.74944401 125.6826654 24.07861328 127.29711914 C22.98051851 128.37869634 21.88350103 129.46136845 20.78759766 130.54516602 C18.74421182 132.55474271 16.69966325 134.5629064 14.63891602 136.5546875 C14.18930795 136.99620085 13.73969988 137.4377142 13.27646732 137.89260674 C11.64111328 139.35961914 11.64111328 139.35961914 9.845047 140.53159618 C6.81986177 142.61210972 4.93766839 144.20162113 4.00713444 147.83520031 C3.77845741 150.96001574 3.77540311 154.01564571 3.84643555 157.14819336 C3.84490227 158.91978065 3.84490227 158.91978065 3.84333801 160.72715759 C3.84736912 163.95276415 3.88237713 167.17622292 3.93135571 170.40140295 C3.97522603 173.77654968 3.97923543 177.15174228 3.98753357 180.52713013 C4.00925842 186.91283356 4.0666563 193.29769439 4.13698 199.68302739 C4.21532333 206.95497651 4.25373473 214.22696668 4.28884804 221.49923301 C4.36194318 236.4531639 4.48500334 251.40630711 4.64111328 266.35961914 C5.75924077 265.40872353 6.87630372 264.45657608 7.99291992 263.50390625 C8.92618858 262.70876869 8.92618858 262.70876869 9.87831116 261.89756775 C12.79262027 259.35499216 15.44568785 256.57426052 18.13720703 253.80102539 C20.17066945 251.81832023 22.2328973 249.97464035 24.38720703 248.12915039 C27.3784491 245.53706625 30.18303868 242.84190389 32.93017578 239.99243164 C34.00138672 238.88254883 34.00138672 238.88254883 35.09423828 237.75024414 C36.55762283 236.22369192 38.01322697 234.68964764 39.46142578 233.14868164 C44.87424747 227.57896657 44.87424747 227.57896657 49.16455078 226.35180664 C50.39044922 226.35567383 50.39044922 226.35567383 51.64111328 226.35961914 C52.44189453 228.53149414 52.44189453 228.53149414 52.64111328 231.35961914 C50.62158203 234.00024414 50.62158203 234.00024414 47.82861328 236.60961914 C46.91466797 237.48102539 46.00072266 238.35243164 45.05908203 239.25024414 C42.64111328 241.35961914 42.64111328 241.35961914 40.64111328 242.35961914 C40.64111328 243.01961914 40.64111328 243.67961914 40.64111328 244.35961914 C39.78308105 244.7276062 39.78308105 244.7276062 38.90771484 245.10302734 C36.25374531 246.57437388 34.49612146 248.29514315 32.37548828 250.46508789 C31.56724609 251.28428711 30.75900391 252.10348633 29.92626953 252.94750977 C29.08966797 253.80538086 28.25306641 254.66325195 27.39111328 255.54711914 C22.25831829 260.78869393 17.14793661 265.95212161 11.53662109 270.68505859 C10.59834473 271.51396606 10.59834473 271.51396606 9.64111328 272.35961914 C8.74980713 273.04652832 7.85850098 273.7334375 6.94018555 274.44116211 C3.62918231 278.64417078 4.00609583 282.0527599 4.15283203 287.25415039 C4.15990677 288.20150558 4.16698151 289.14886078 4.17427063 290.12492371 C4.20218994 293.14146936 4.26492413 296.15613754 4.32861328 299.17211914 C4.35369932 301.2209204 4.37651196 303.26975084 4.39697266 305.31860352 C4.4520087 310.33299535 4.53826472 315.34598928 4.64111328 320.35961914 C9.19059659 319.55341857 12.97957483 317.94034932 17.07861328 315.85961914 C17.77873535 315.50577148 18.47885742 315.15192383 19.20019531 314.78735352 C52.09171461 297.83311518 75.67479819 271.39440499 87.89111328 236.54711914 C88.12556152 235.89743164 88.36000977 235.24774414 88.6015625 234.57836914 C93.20023877 220.71301355 94.25893503 205.99159635 94.20361328 191.48461914 C94.20288818 190.29422028 94.20288818 190.29422028 94.20214844 189.07977295 C93.92448456 122.81231391 51.67277954 64.32407717 8.57861328 17.48461914 C7.93480713 16.77547363 7.29100098 16.06632812 6.62768555 15.33569336 C6.02239014 14.68616699 5.41709473 14.03664063 4.79345703 13.36743164 C4.25712646 12.78622559 3.7207959 12.20501953 3.16821289 11.60620117 C0.90805793 9.76122096 -0.66362075 9.80891343 -2.93701172 11.60961914 Z " fill="#EFF7F2" transform="translate(227.35888671875,45.640380859375)"/>
<path d="M0 0 C0.70125 0.144375 1.4025 0.28875 2.125 0.4375 C2.125 1.7575 2.125 3.0775 2.125 4.4375 C-0.375 6.6875 -0.375 6.6875 -2.875 8.4375 C-2.32776317 11.81212715 -1.8201 13.51985 0.125 16.4375 C0.25 19.625 0.25 19.625 0.125 22.4375 C2.105 22.4375 4.085 22.4375 6.125 22.4375 C7.115 19.4675 8.105 16.4975 9.125 13.4375 C10.445 13.4375 11.765 13.4375 13.125 13.4375 C13.40563054 18.95656726 13.34935852 21.79442373 10.125 26.4375 C9.29853099 28.99204058 9.125 30.71397055 9.125 33.4375 C9.75148438 33.48648438 10.37796875 33.53546875 11.0234375 33.5859375 C11.84070313 33.66070312 12.65796875 33.73546875 13.5 33.8125 C14.31210937 33.88210937 15.12421875 33.95171875 15.9609375 34.0234375 C18.125 34.4375 18.125 34.4375 20.125 36.4375 C20.125 37.4275 20.125 38.4175 20.125 39.4375 C16.825 39.1075 13.525 38.7775 10.125 38.4375 C9.70728196 41.76950185 9.70728196 41.76950185 10.125 45.4375 C12.46846271 47.61227572 12.46846271 47.61227572 15.125 49.4375 C16.80348335 52.41299321 17.20317624 53.85117823 16.75 57.25 C16.54375 57.971875 16.3375 58.69375 16.125 59.4375 C12.83351757 58.30250606 12.1290131 57.44466624 10.375 54.3125 C9.9625 53.36375 9.55 52.415 9.125 51.4375 C8.465 51.4375 7.805 51.4375 7.125 51.4375 C5.72284007 52.93581948 5.72284007 52.93581948 4.3125 54.8125 C1.07864143 58.65125298 -1.07473897 60.08807401 -6.12890625 60.71875 C-12.05413808 61.08059622 -15.48159323 60.05580292 -20.18359375 56.43359375 C-20.74175781 56.10488281 -21.29992187 55.77617187 -21.875 55.4375 C-23.36 55.9325 -23.36 55.9325 -24.875 56.4375 C-25.67712628 58.31137216 -25.67712628 58.31137216 -26.0625 60.5 C-26.30033203 61.60021484 -26.30033203 61.60021484 -26.54296875 62.72265625 C-26.65253906 63.28855469 -26.76210938 63.85445312 -26.875 64.4375 C-28.195 64.1075 -29.515 63.7775 -30.875 63.4375 C-31.30213605 57.13724333 -30.84023636 55.39404544 -26.875 50.4375 C-26.52296603 47.67817491 -26.68540548 45.2340192 -26.875 42.4375 C-27.7825 42.911875 -28.69 43.38625 -29.625 43.875 C-32.13927949 45.08378821 -34.17068209 45.91743886 -36.875 46.4375 C-37.205 45.1175 -37.535 43.7975 -37.875 42.4375 C-34.58695019 39.52522731 -32.27614397 37.94048788 -27.875 37.4375 C-27.875 35.4575 -27.875 33.4775 -27.875 31.4375 C-29.0196875 31.128125 -29.0196875 31.128125 -30.1875 30.8125 C-33.76009382 28.9846613 -34.47053428 27.13346243 -35.875 23.4375 C-35.875 22.1175 -35.875 20.7975 -35.875 19.4375 C-34.225 19.7675 -32.575 20.0975 -30.875 20.4375 C-30.215 22.4175 -29.555 24.3975 -28.875 26.4375 C-25.41 25.9425 -25.41 25.9425 -21.875 25.4375 C-21.88660156 24.76203125 -21.89820313 24.0865625 -21.91015625 23.390625 C-21.91917969 22.49859375 -21.92820312 21.6065625 -21.9375 20.6875 C-21.94910156 19.80578125 -21.96070313 18.9240625 -21.97265625 18.015625 C-21.875 15.4375 -21.875 15.4375 -21.24609375 13.234375 C-21.12363281 12.64140625 -21.00117188 12.0484375 -20.875 11.4375 C-23.09689824 9.21560176 -24.95982708 8.51151108 -27.875 7.4375 C-27.875 6.1175 -27.875 4.7975 -27.875 3.4375 C-25.25 3.125 -25.25 3.125 -21.875 3.4375 C-20.4209375 4.7059375 -20.4209375 4.7059375 -18.9375 6 C-16.06811805 8.7552157 -16.06811805 8.7552157 -12.375 8.6875 C-8.196341 7.19512179 -6.905613 5.39717841 -4.296875 1.9609375 C-2.875 0.4375 -2.875 0.4375 0 0 Z " fill="#EAF5EE" transform="translate(286.875,188.5625)"/>
<path d="M0 0 C3.84666275 0.0629673 7.69168849 0.0820202 11.53881836 0.09375 C13.97959375 0.11206704 16.42035241 0.13281119 18.86108398 0.15625 C20.01303757 0.16474976 21.16499115 0.17324951 22.35185242 0.18200684 C23.41088272 0.20122192 24.46991302 0.22043701 25.56103516 0.24023438 C26.96116096 0.26071838 26.96116096 0.26071838 28.38957214 0.28161621 C30.63061523 0.5625 30.63061523 0.5625 32.63061523 2.5625 C32.81811523 5.125 32.81811523 5.125 32.63061523 7.5625 C30.98477668 9.20833856 29.07766017 8.69566916 26.81054688 8.7043457 C25.78179947 8.71138016 24.75305206 8.71841461 23.69313049 8.72566223 C22.57035202 8.72982651 21.44757355 8.73399078 20.29077148 8.73828125 C17.92422631 8.7614982 15.55768985 8.78561627 13.19116211 8.81054688 C9.45209093 8.8455372 5.71333536 8.87492699 1.97412109 8.88842773 C-1.62905603 8.90399273 -5.23130052 8.94428149 -8.83422852 8.98828125 C-10.49106911 8.98541862 -10.49106911 8.98541862 -12.18138123 8.98249817 C-20.80022076 9.11695136 -27.47179665 10.98862105 -34.68188477 15.75 C-40.53328146 21.87355468 -43.44531538 28.44207617 -43.55883789 36.8659668 C-43.57555542 37.92353683 -43.59227295 38.98110687 -43.60949707 40.07072449 C-43.62307251 41.20625259 -43.63664795 42.3417807 -43.65063477 43.51171875 C-43.66904419 44.68007767 -43.68745361 45.84843658 -43.7064209 47.05220032 C-43.78517313 52.05562113 -43.85306687 57.05917491 -43.92163086 62.06274414 C-43.97319207 65.71247357 -44.03048708 69.36208122 -44.08813477 73.01171875 C-44.10171021 74.15331955 -44.11528564 75.29492035 -44.12927246 76.47111511 C-44.14598999 77.51922867 -44.16270752 78.56734222 -44.17993164 79.6472168 C-44.19245972 80.57447067 -44.20498779 81.50172455 -44.21789551 82.45707703 C-44.36938477 84.5625 -44.36938477 84.5625 -45.36938477 85.5625 C-47.3689684 85.60330783 -49.36983731 85.60504356 -51.36938477 85.5625 C-52.63206515 83.03713922 -52.51695305 81.25638566 -52.54638672 78.42944336 C-52.55922195 77.35750229 -52.57205719 76.28556122 -52.58528137 75.18113708 C-52.5926683 74.01663528 -52.60005524 72.85213348 -52.60766602 71.65234375 C-52.61573776 70.45573624 -52.62380951 69.25912872 -52.63212585 68.02626038 C-52.64597998 65.48667861 -52.65669616 62.94707811 -52.66455078 60.4074707 C-52.6817066 56.54016218 -52.72557595 52.67372101 -52.76977539 48.80664062 C-52.77990716 46.33854795 -52.78842174 43.87044801 -52.79516602 41.40234375 C-52.82142815 39.67684547 -52.82142815 39.67684547 -52.84822083 37.91648865 C-52.81810473 26.65467543 -48.89238156 18.4785284 -41.43188477 10.0625 C-29.1855144 -1.13483918 -15.72265122 -0.26039974 0 0 Z " fill="#F3FAF5" transform="translate(93.369384765625,44.4375)"/>
<path d="M0 0 C4.55555556 0.55555556 4.55555556 0.55555556 6 2 C6.10183878 3.53755849 6.13568732 5.07969038 6.1418457 6.62060547 C6.14888016 7.60608368 6.15591461 8.59156189 6.16316223 9.60690308 C6.16732651 10.68279694 6.17149078 11.7586908 6.17578125 12.8671875 C6.19900255 15.13802987 6.22312078 17.40886321 6.24804688 19.6796875 C6.28300082 23.26503324 6.31240592 26.85005243 6.32592773 30.43554688 C6.34152263 33.89233473 6.38183371 37.34815826 6.42578125 40.8046875 C6.42387283 41.86033905 6.42196442 42.9159906 6.41999817 44.00363159 C6.55483374 52.31897209 8.14116764 60.53737018 13.1875 67.375 C19.32446415 73.10283321 25.82448742 76.08597215 34.19580078 76.17358398 C35.23012238 76.18707382 36.26444397 76.20056366 37.33010864 76.21446228 C38.44062592 76.22490067 39.55114319 76.23533905 40.6953125 76.24609375 C43.04297277 76.27901164 45.39062893 76.31222361 47.73828125 76.34570312 C51.44284423 76.3932607 55.14738815 76.43773611 58.85205078 76.47680664 C62.42497536 76.51635844 65.99756841 76.56792088 69.5703125 76.62109375 C71.2421611 76.63371498 71.2421611 76.63371498 72.94778442 76.64659119 C73.9758017 76.66323318 75.00381897 76.67987518 76.06298828 76.69702148 C76.97025665 76.70732895 77.87752502 76.71763641 78.81228638 76.72825623 C81 77 81 77 83 79 C82.44444444 83.55555556 82.44444444 83.55555556 81 85 C79.35671157 85.13009006 77.70790596 85.19122274 76.05981445 85.22460938 C75.00393631 85.24712769 73.94805817 85.269646 72.86018372 85.29284668 C67.97188299 85.36400415 63.08374069 85.42151872 58.19506836 85.45996094 C55.6297727 85.4864156 53.06458015 85.52716865 50.49975586 85.58300781 C33.23479127 85.9544658 20.9208542 85.88055702 7.4375 74.25 C1.31152275 67.51931255 -2.10805083 58.75861234 -2.14526367 49.71240234 C-2.15164352 48.65806 -2.15802338 47.60371765 -2.16459656 46.51742554 C-2.16570938 45.38503448 -2.1668222 44.25264343 -2.16796875 43.0859375 C-2.17129715 41.91995026 -2.17462555 40.75396301 -2.17805481 39.55264282 C-2.18311512 37.08978673 -2.18546341 34.62692379 -2.18530273 32.1640625 C-2.18749554 28.38269912 -2.20567823 24.60162451 -2.22460938 20.8203125 C-2.22754213 18.4296885 -2.22952771 16.03906311 -2.23046875 13.6484375 C-2.23765427 12.51199799 -2.24483978 11.37555847 -2.25224304 10.2046814 C-2.24916641 9.15664337 -2.24608978 8.10860535 -2.24291992 7.02880859 C-2.24434494 6.10377533 -2.24576996 5.17874207 -2.24723816 4.22567749 C-2 2 -2 2 0 0 Z " fill="#F3FAF5" transform="translate(43,333)"/>
<path d="M0 0 C1.00872665 -0.00960754 2.01745331 -0.01921509 3.05674744 -0.02911377 C4.15765213 -0.03336365 5.25855682 -0.03761353 6.39282227 -0.04199219 C7.52188492 -0.04769226 8.65094757 -0.05339233 9.81422424 -0.05926514 C12.21435606 -0.06873764 14.61450101 -0.075258 17.01464844 -0.07910156 C20.66242829 -0.08874348 24.30962949 -0.11971948 27.95727539 -0.15136719 C30.28995434 -0.15790341 32.62263732 -0.16315144 34.95532227 -0.16699219 C36.03800888 -0.17933899 37.1206955 -0.19168579 38.2361908 -0.20440674 C50.41726853 -0.16915772 60.07115515 3.13116634 69.02172852 11.47363281 C72.37488757 14.97955538 74.42787887 18.70443462 76.27172852 23.16113281 C76.6137178 23.90981628 76.95570709 24.65849976 77.30805969 25.42987061 C78.36370775 28.42182343 78.5192475 30.68838447 78.51464844 33.85351562 C78.51926338 35.52985077 78.51926338 35.52985077 78.52397156 37.24005127 C78.51319328 39.03403351 78.51319328 39.03403351 78.50219727 40.86425781 C78.50173904 42.09778992 78.50128082 43.33132202 78.50080872 44.60223389 C78.49701956 47.87011656 78.48403004 51.13780309 78.46734619 54.40563965 C78.45384637 57.74080612 78.45707063 61.07594003 78.45727539 64.41113281 C78.45236196 66.9371765 78.44653441 69.4632186 78.43969727 71.98925781 C78.43858444 73.1933429 78.43747162 74.39742798 78.43632507 75.63800049 C78.42994522 76.74294861 78.42356537 77.84789673 78.41699219 78.98632812 C78.41318039 79.96386047 78.40936859 80.94139282 78.40544128 81.94854736 C78.27172852 84.16113281 78.27172852 84.16113281 77.27172852 85.16113281 C74.83422852 85.34863281 74.83422852 85.34863281 72.27172852 85.16113281 C69.75114283 82.64054713 70.02129328 81.80570842 70.01635742 78.31933594 C70.0093985 77.31068481 70.00243958 76.30203369 69.99526978 75.26281738 C69.99626678 74.16707397 69.99726379 73.07133057 69.99829102 71.94238281 C69.97798526 69.6246698 69.95713418 67.30696151 69.93579102 64.98925781 C69.91327369 61.3336185 69.89675594 57.67816619 69.89086914 54.02246094 C69.88129 50.49542287 69.84742602 46.96922969 69.81079102 43.44238281 C69.81835922 41.82305847 69.81835922 41.82305847 69.82608032 40.17102051 C69.71647416 31.62723226 67.76284161 25.04433851 63.14672852 17.84863281 C57.41414362 12.48991215 50.05814402 9.06969964 42.18945312 8.98754883 C41.155056 8.97405899 40.12065887 8.96056915 39.05491638 8.94667053 C37.38139854 8.93101295 37.38139854 8.93101295 35.67407227 8.91503906 C33.32315686 8.88211626 30.9722455 8.84890436 28.62133789 8.81542969 C24.90578856 8.76789233 21.1902574 8.72343314 17.47460938 8.68432617 C13.89509357 8.64476697 10.31590819 8.59319962 6.73657227 8.54003906 C5.61886948 8.53162491 4.50116669 8.52321075 3.34959412 8.51454163 C2.31834915 8.49789963 1.28710419 8.48125763 0.22460938 8.46411133 C-0.6856752 8.45380386 -1.59595978 8.4434964 -2.53382874 8.43287659 C-4.72827148 8.16113281 -4.72827148 8.16113281 -6.72827148 6.16113281 C-6.05706882 0.65727099 -5.39102196 0.04129488 0 0 Z " fill="#F3FAF5" transform="translate(335.728271484375,44.8388671875)"/>
<path d="M0 0 C3.125 0.375 3.125 0.375 6 1 C6.1020101 8.48889437 6.17172045 15.97760737 6.21972656 23.46704102 C6.23975435 26.01105444 6.26698464 28.55502235 6.30175781 31.09887695 C6.3506643 34.77045983 6.3730582 38.44143033 6.390625 42.11328125 C6.41127014 43.23769119 6.43191528 44.36210114 6.45318604 45.52058411 C6.45649589 57.35545333 2.86707829 66.74556414 -5.0625 75.5625 C-11.49549421 81.84232769 -20.39284085 85.10867386 -29.28759766 85.14526367 C-30.34194 85.15164352 -31.39628235 85.15802338 -32.48257446 85.16459656 C-33.61496552 85.16570938 -34.74735657 85.1668222 -35.9140625 85.16796875 C-37.08004974 85.17129715 -38.24603699 85.17462555 -39.44735718 85.17805481 C-41.91021327 85.18311512 -44.37307621 85.18546341 -46.8359375 85.18530273 C-50.61730088 85.18749554 -54.39837549 85.20567823 -58.1796875 85.22460938 C-60.5703115 85.22754213 -62.96093689 85.22952771 -65.3515625 85.23046875 C-66.48800201 85.23765427 -67.62444153 85.24483978 -68.7953186 85.25224304 C-70.36737564 85.2476281 -70.36737564 85.2476281 -71.97119141 85.24291992 C-73.3587413 85.24505745 -73.3587413 85.24505745 -74.77432251 85.24723816 C-77 85 -77 85 -79 83 C-78.625 79.875 -78.625 79.875 -78 77 C-77.35821808 76.99635437 -76.71643616 76.99270874 -76.0552063 76.98895264 C-69.33820175 76.94694213 -62.62186872 76.87746739 -55.90527344 76.79248047 C-53.40306332 76.76436212 -50.90076589 76.74310245 -48.3984375 76.72900391 C-44.78861075 76.70744841 -41.1798238 76.66073079 -37.5703125 76.609375 C-36.46261505 76.60814636 -35.3549176 76.60691772 -34.21365356 76.60565186 C-25.59249325 76.44532901 -18.90105481 74.57616827 -11.6875 69.8125 C-5.53724382 63.37618539 -2.92103324 56.62434728 -2.82641602 47.7824707 C-2.81292618 46.76824539 -2.79943634 45.75402008 -2.78553772 44.70906067 C-2.77509933 43.62557846 -2.76466095 42.54209625 -2.75390625 41.42578125 C-2.7209936 39.12694895 -2.68778156 36.82812092 -2.65429688 34.52929688 C-2.60671831 30.90814916 -2.56222538 27.28702186 -2.52319336 23.66577148 C-2.48364762 20.16893347 -2.43209094 16.67243459 -2.37890625 13.17578125 C-2.3704921 12.08622635 -2.36207794 10.99667145 -2.35340881 9.87409973 C-2.33676682 8.8693309 -2.32012482 7.86456207 -2.30297852 6.8293457 C-2.29267105 5.94285843 -2.28236359 5.05637115 -2.27174377 4.14302063 C-2 2 -2 2 0 0 Z " fill="#F4FBF6" transform="translate(408,333)"/>
<path d="M0 0 C4.41854291 3.11306432 8.02390999 6.75922996 9.75 11.9375 C10.60268941 17.31268132 10.03221473 21.16702894 7.125 25.8125 C4.35433677 29.48747692 2.29929233 31.67380769 -2.25 32.9375 C-7.84572499 33.61647918 -13.33725928 34.07825865 -18.25 30.9375 C-22.2799452 27.4396258 -24.72400006 23.12338603 -25.59375 17.85546875 C-25.81054534 13.13113697 -24.86688579 9.82062085 -22.25 5.9375 C-15.48178793 -0.75237628 -9.44542203 -3.08792643 0 0 Z " fill="#F1F9F4" transform="translate(200.25,191.0625)"/>
<path d="M0 0 C3.35906012 3.03134694 5.25605631 5.05389648 5.87890625 9.64453125 C6.07784693 13.92496464 5.81838784 16.75978226 4 20.6875 C0.11324443 24.87323677 -3.24753238 26.99964748 -8.9375 27.8125 C-13.99396488 27.09014787 -17.64224916 25.59128545 -20.80078125 21.58203125 C-23.32727585 17.23229312 -24.01283496 13.45670078 -23.1875 8.49609375 C-21.88393422 4.70081631 -19.49561487 1.86853631 -16.4375 -0.6875 C-10.80755027 -2.56414991 -5.34720492 -2.62499151 0 0 Z " fill="#F0F8F2" transform="translate(194.4375,294.6875)"/>
<path d="M0 0 C3.64331077 1.61924923 6.20425519 3.40851039 8 7 C8.58377585 11.26236343 8.44772276 14.85581962 6.875 18.875 C3.7685724 22.39561795 0.6093583 23.76530191 -4 24.4375 C-7.85762893 23.87492911 -9.97048355 22.40984263 -13 20 C-15.98532384 15.52201424 -15.96252521 11.23792788 -15 6 C-11.33569197 0.14156223 -6.49981811 -0.94352198 0 0 Z " fill="#F1F9F4" transform="translate(194,141)"/>
<path d="M0 0 C4.71875 0.703125 4.71875 0.703125 7.25 3.375 C10.32449432 7.98674147 10.95101099 12.59000353 10 18 C7.8996123 21.74263714 5.24066202 24.26832753 1.5625 26.4375 C-1.67330636 27.14779896 -4.6986916 27.12946307 -8 27 C-7.51646831 20.19650486 -6.04694037 14.71565851 -3.4375 8.4375 C-2.9434668 7.21063477 -2.9434668 7.21063477 -2.43945312 5.95898438 C-1.63631085 3.9685883 -0.81958033 1.98368398 0 0 Z " fill="#27713F" transform="translate(150,163)"/>
<path d="M0 0 C8.30068798 1.32254148 8.30068798 1.32254148 11 3.9375 C13.53792266 9.17196548 14.08073666 14.65206578 12.28125 20.2265625 C10.27559378 24.54519322 8.06932576 27.36043735 4 30 C3.67 30 3.34 30 3 30 C1.2092328 20.00299865 0.46105829 10.13114935 0 0 Z " fill="#256F3D" transform="translate(279,214)"/>
<path d="M0 0 C1.15192306 2.30384611 1.2929634 4.01560046 1.53515625 6.578125 C1.62216797 7.49207031 1.70917969 8.40601563 1.79882812 9.34765625 C1.88583984 10.30542969 1.97285156 11.26320312 2.0625 12.25 C2.15337891 13.19230469 2.24425781 14.13460937 2.33789062 15.10546875 C2.77141166 19.75359656 3.1176429 24.32565555 3 29 C-0.40642186 28.70802098 -1.93200196 28.05504603 -4.625 25.875 C-9.47941715 19.99860029 -10.61536556 14.98480508 -10.4296875 7.46484375 C-10 5 -10 5 -7.625 2.375 C-3.09090909 0 -3.09090909 0 0 0 Z " fill="#266E3D" transform="translate(274,215)"/>
<path d="M0 0 C2.875 1.5625 2.875 1.5625 5 4 C6.14888518 7.94929279 6.43129396 10.02958859 4.75 13.8125 C3 16 3 16 0 18 C-4.21178243 18.46797583 -6.28599114 18.46565795 -9.875 16.125 C-12.38666318 13.61333682 -12.92153796 12.70615837 -13.3125 9.1875 C-12.92835642 5.2692355 -11.70743683 3.78706733 -9 1 C-5.89951072 -0.55024464 -3.42105782 -0.28992015 0 0 Z " fill="#256F3E" transform="translate(196,198)"/>
<path d="M0 0 C3.02921527 2.58591547 3.84825878 4.08955268 4.5 8 C3.88466097 11.69203416 2.58383614 13.34016868 0 16 C-3.21451269 17.60725635 -6.43612536 17.05748185 -10 17 C-13.80246914 6.81481481 -13.80246914 6.81481481 -13 2 C-9.79224403 -2.32349718 -4.66282166 -1.39456868 0 0 Z " fill="#26703D" transform="translate(149,258)"/>
<path d="M0 0 C3.5625 0.3125 3.5625 0.3125 5.5 1.4375 C7.06672245 4.20230433 6.95226435 6.19438517 6.5625 9.3125 C5.5 11.1875 5.5 11.1875 3.5625 12.3125 C0.0625 12.75 0.0625 12.75 -3.4375 12.3125 C-5.4375 10.6875 -5.4375 10.6875 -6.4375 8.3125 C-6.12371717 3.0827861 -5.61102633 0.5100933 0 0 Z " fill="#236D3B" transform="translate(185.4375,300.6875)"/>
<path d="M0 0 C0.33 0 0.66 0 1 0 C1 38.28 1 76.56 1 116 C1.99 116.33 2.98 116.66 4 117 C2.68 117.99 1.36 118.98 0 120 C0 80.4 0 40.8 0 0 Z " fill="#26663C" transform="translate(232,192)"/>
<path d="M0 0 C1.875 0.3125 1.875 0.3125 4 1 C4.66 1.99 5.32 2.98 6 4 C5.01 4.495 5.01 4.495 4 5 C3.67 4.34 3.34 3.68 3 3 C-0.01893568 2.65850891 -0.01893568 2.65850891 -1.68359375 4.57421875 C-2.26238281 5.27160156 -2.84117187 5.96898437 -3.4375 6.6875 C-4.35402344 7.77804688 -4.35402344 7.77804688 -5.2890625 8.890625 C-6.64435855 10.56153793 -7.98169414 12.24701688 -9.3125 13.9375 C-11 16 -11 16 -13 17 C-13.556875 18.0209375 -13.556875 18.0209375 -14.125 19.0625 C-16.82552239 23.29331841 -20.38780807 26.54224858 -24 30 C-24.66 29.67 -25.32 29.34 -26 29 C-17.54809497 19.12330574 -8.91075614 9.46494392 0 0 Z " fill="#2C6D42" transform="translate(226,56)"/>
<path d="M0 0 C2.59926216 0.93306847 3.81508096 1.65484763 5.4375 3.875 C5.4375 4.865 5.4375 5.855 5.4375 6.875 C-0.5025 7.37 -0.5025 7.37 -6.5625 7.875 C-6.5625 2.875 -6.5625 2.875 -4.875 1 C-2.5625 -0.125 -2.5625 -0.125 0 0 Z " fill="#317447" transform="translate(276.5625,202.125)"/>
<path d="M0 0 C1.67542976 0.28604898 3.34385343 0.61781233 5 1 C5.38218767 2.65614657 5.71395102 4.32457024 6 6 C5 7 5 7 2.5 7.125 C0 7 0 7 -1 6 C-1.125 3.5 -1.125 3.5 -1 1 C-0.67 0.67 -0.34 0.34 0 0 Z " fill="#266C3F" transform="translate(188,149)"/>
<path d="M0 0 C0 4.91886814 -3.68826689 7.6051539 -7 11 C-9.27699716 13.08798002 -11.60502418 15.0449177 -14 17 C-14.66 16.67 -15.32 16.34 -16 16 C-10.72 10.72 -5.44 5.44 0 0 Z " fill="#29683E" transform="translate(256,168)"/>
<path d="M0 0 C2.475 0.495 2.475 0.495 5 1 C5.66 2.98 6.32 4.96 7 7 C6.01 6.34 5.02 5.68 4 5 C3.01 6.485 3.01 6.485 2 8 C0.23537317 4.91190305 0 3.76687864 0 0 Z " fill="#E0F0E4" transform="translate(251,208)"/>
<path d="M0 0 C0.33 0.99 0.66 1.98 1 3 C-0.57871821 5.20430375 -2.14761637 7.16942403 -3.9375 9.1875 C-4.41896484 9.74630859 -4.90042969 10.30511719 -5.39648438 10.88085938 C-6.58857598 12.26179717 -7.79314375 13.63194679 -9 15 C-9.66 14.67 -10.32 14.34 -11 14 C-7.37 9.38 -3.74 4.76 0 0 Z " fill="#3A754D" transform="translate(199,86)"/>
<path d="M0 0 C0.66 0 1.32 0 2 0 C2 0.66 2 1.32 2 2 C2.99 2.66 3.98 3.32 5 4 C3.25 5.5625 3.25 5.5625 1 7 C-1.25 6.6875 -1.25 6.6875 -3 6 C-2.42655063 3.13275314 -2.1385485 2.1385485 0 0 Z " fill="#D5EBDC" transform="translate(252,228)"/>
<path d="M0 0 C1.890625 0.90234375 1.890625 0.90234375 3.890625 3.90234375 C2.900625 4.39734375 2.900625 4.39734375 1.890625 4.90234375 C1.560625 4.24234375 1.230625 3.58234375 0.890625 2.90234375 C-2.06446363 2.5586417 -2.06446363 2.5586417 -3.49609375 4.21484375 C-3.92535156 4.77171875 -4.35460937 5.32859375 -4.796875 5.90234375 C-5.56 6.89234375 -6.323125 7.88234375 -7.109375 8.90234375 C-7.769375 8.24234375 -8.429375 7.58234375 -9.109375 6.90234375 C-8.04221428 5.70028911 -6.95499163 4.51602042 -5.859375 3.33984375 C-5.25609375 2.67855469 -4.6528125 2.01726563 -4.03125 1.3359375 C-2.109375 -0.09765625 -2.109375 -0.09765625 0 0 Z " fill="#427B55" transform="translate(228.109375,56.09765625)"/>
<path d="M0 0 C0.33 0 0.66 0 1 0 C1 5.28 1 10.56 1 16 C1.99 16.33 2.98 16.66 4 17 C2.68 17.99 1.36 18.98 0 20 C0 13.4 0 6.8 0 0 Z " fill="#306C45" transform="translate(232,292)"/>
<path d="M0 0 C0.99 0 1.98 0 3 0 C2.67 5.61 2.34 11.22 2 17 C1.67 17 1.34 17 1 17 C0.67 11.39 0.34 5.78 0 0 Z " fill="#447854" transform="translate(279,214)"/>
<path d="M0 0 C0 4.02197773 -1.2932859 5.07959795 -4 8 C-5.95851344 9.39355764 -7.95127113 10.74282547 -10 12 C-8.52278578 8.54798361 -6.56205999 6.35038064 -3.875 3.75 C-3.15054688 3.04359375 -2.42609375 2.3371875 -1.6796875 1.609375 C-1.12539062 1.07828125 -0.57109375 0.5471875 0 0 Z " fill="#357349" transform="translate(219,64)"/>
<path d="M0 0 C0.33 0 0.66 0 1 0 C1 2.97 1 5.94 1 9 C0.01 9 -0.98 9 -2 9 C-2.125 5.625 -2.125 5.625 -2 2 C-1.34 1.34 -0.68 0.68 0 0 Z " fill="#EDF8F1" transform="translate(259,244)"/>
<path d="M0 0 C0.66 0.33 1.32 0.66 2 1 C-0.84936103 4.00765886 -3.23511958 6.27845212 -7 8 C-6.02133662 6.85373678 -5.04205413 5.70800212 -4.0625 4.5625 C-3.51722656 3.92441406 -2.97195313 3.28632813 -2.41015625 2.62890625 C-1.63204305 1.73008851 -0.84063472 0.84063472 0 0 Z " fill="#467E58" transform="translate(266,290)"/>
<path d="M0 0 C-2.97 1.32 -5.94 2.64 -9 4 C-9 3.01 -9 2.02 -9 1 C-5.19495213 -0.79682816 -4.29399165 -1.07349791 0 0 Z " fill="#3D7A53" transform="translate(252,358)"/>
<path d="M0 0 C0.33 0 0.66 0 1 0 C1 1.65 1 3.3 1 5 C-0.98 5.99 -0.98 5.99 -3 7 C-3 7.66 -3 8.32 -3 9 C-3.66 8.67 -4.32 8.34 -5 8 C-4.19185349 6.66402348 -3.37836819 5.331275 -2.5625 4 C-2.11003906 3.2575 -1.65757812 2.515 -1.19140625 1.75 C-0.79824219 1.1725 -0.40507812 0.595 0 0 Z " fill="#3A784E" transform="translate(309,313)"/>
<path d="M0 0 C0.66 0.33 1.32 0.66 2 1 C1.01 2.485 1.01 2.485 0 4 C-0.38499891 5.65549531 -0.72793135 7.3222433 -1 9 C-1.66 8.67 -2.32 8.34 -3 8 C-2.25 2.25 -2.25 2.25 0 0 Z " fill="#3F7753" transform="translate(182,301)"/>
<path d="M0 0 C0.66 0.33 1.32 0.66 2 1 C0.38405168 3.04119788 -1.2856382 5.04072937 -3 7 C-3.66 7 -4.32 7 -5 7 C-3.70700306 4.11562221 -2.34058637 2.12780579 0 0 Z " fill="#DDF2E4" transform="translate(178,294)"/>
<path d="M0 0 C0.66 0.33 1.32 0.66 2 1 C0.35 2.65 -1.3 4.3 -3 6 C-3.99 5.67 -4.98 5.34 -6 5 C-4.02 3.35 -2.04 1.7 0 0 Z " fill="#D7EADE" transform="translate(256,157)"/>
</svg>
